<svg xmlns="http://www.w3.org/2000/svg" viewBox="0 0 24 24">
  <path fill="none" d="M0 0h24v24H0V0z"/>
  <path d="M12 2.1C6.4 2.1 1.8 6.6 1.8 12.3c0 4.5 2.9 8.3 7 9.7.5.1.7-.2.7-.5v-1.7c-2.9.5-3.5-1.5-3.5-1.5-.5-1.2-1.1-1.5-1.1-1.5-.9-.6.1-.6.1-.6 1 .1 1.6 1 1.6 1 .9 1.6 2.4 1.1 3 .8.1-.7.4-1.1.6-1.4-2.3-.3-4.6-1.1-4.6-5 0-1.1.4-2 1-2.7-.1-.2-.5-1.2.1-2.6 0 0 .9-.3 2.8 1 .8-.2 1.6-.3 2.5-.3.9 0 1.7.1 2.5.3 1.9-1.3 2.8-1 2.8-1 .6 1.4.2 2.4.1 2.7.7.7 1 1.6 1 2.7 0 3.9-2.4 4.8-4.6 5 .4.3.7.9.7 1.9v2.8c0 .3.2.6.7.5 4-1.3 7-5.2 7-9.7 0-5.6-4.6-10.1-10.2-10.1z"/>
</svg>