<?xml version="1.0" encoding="utf-8"?>
<!-- Generator: Adobe Illustrator 22.1.0, SVG Export Plug-In . SVG Version: 6.00 Build 0)  -->
<svg version="1.1" id="Layer_1" xmlns="http://www.w3.org/2000/svg" xmlns:xlink="http://www.w3.org/1999/xlink" x="0px" y="0px"
	 viewBox="0 0 400 400" style="enable-background:new 0 0 400 400;" xml:space="preserve">
<style type="text/css">
	.st0{fill:#FCD4C5;}
</style>
<g>
	<path class="st0" d="M283.5,48.3c47.7,0,86.5,38.8,86.5,86.5c0,37.7-21.3,79-63.3,123l0,0l0,0C272.8,293.4,231.5,324,200,345
		c-31.3-20.8-72.4-51.2-106.6-87.2C71.8,235.2,55.6,213,45,191.7c-9.8-19.8-14.8-38.9-14.8-56.9c0-47.7,38.9-86.5,86.7-86.5
		c13.8,0,27,3.2,39.3,9.4c8.2,4.2,16,9.9,22.6,16.6l21.3,21.8l21.5-21.7c6.8-6.9,14.6-12.7,22.7-16.8l0,0l0,0
		C256.5,51.5,269.7,48.3,283.5,48.3 M283.5,18.3c-18.6,0-36.5,4.3-52.9,12.7c-11.2,5.7-21.5,13.4-30.4,22.4
		c-8.8-9-19.2-16.7-30.4-22.4c-16.5-8.4-34.3-12.7-52.9-12.7C52.5,18.3,0.2,70.6,0.2,134.8c0,45.5,24,93.9,71.4,143.7
		c39.6,41.6,88,76.3,121.7,98l6.7,4.3l6.7-4.3c33.7-21.8,82.1-56.4,121.7-98C376,228.7,400,180.4,400,134.8
		C400,70.6,347.7,18.3,283.5,18.3L283.5,18.3z"/>
</g>
</svg>
