<svg xmlns="http://www.w3.org/2000/svg" height="24px" viewBox="0 0 24 24" width="24px">
  <path d="M0 0h24v24H0z" fill="none"/>
  <path fill="#010202" d="M22.6 17.4c.4-1-.5-1.6 0-2.4.5-.8.4-2 .3-2-.3-.1-3.1 1.2-3.8 1.1-1.5-.3-1.3-.5-3.3-.9-.8-.2-.7-.1-.9-.2-.1-.1-.2-.1-.2-.1 2.6-.5 4-1.1 4.5-1.2.5-.1 3.6 1.3 3.8 1 .2-.3-.7-1-.3-2 .4-1-.5-1.6 0-2.4.5-.8.4-2 .3-2-.3-.1-3.1 1.3-3.8 1.1-1.5-.3-1.3-.4-3.3-.9-.8-.2-.7-.1-.9-.2-.3-.3-.5-.3-.8-.9C13.8 4.9 9.7 4 9.4 4c-.6 0-1.7 1.4-1.7 1.4s-.4 0-1.6.1c-1.3 0-2.4.6-3.8 1.7C.8 8.3 1 9.5 1 9.5s1.4.5 1.4.7-1.2.5-1.2.5c.7.9 2.9 1.8 3.7 1.9-.9.2-1.7.7-2.6 1.4C.8 15.2 1 16.3 1 16.3s1.4.5 1.4.7c0 .2-1.2.5-1.2.5.8 1 3.2 1.9 3.8 1.9.6 0 1 0 1.8-.1h.1s.6 1.3 1.8 1.6c1.1.2 1.7.1 1.9.1.4 0 .7-.1.7-.1v-.1c0-.2 0-.5-.2-.8.8 0 1.7 0 2.6-.1 3.3-.5 4.9-1.2 5.5-1.4.5-.1 3.6 1.3 3.8 1 .1-.4-.8-1.2-.4-2.1zm-17-1.6l-.1.1c-.2.2-.4.3-.7.3-.1 0-.2 0-.4-.1-.1 0-.1 0-.2-.1 0 0-.1 0-.1-.1-.1.1-.2 0-.3-.1 0 0-.1-.1-.1-.2.1.3.4.5.7.5.4 0 .8-.4.8-.8 0-.5-.3-.8-.8-.8h-.2-.1c-.2.1-.4.3-.5.6.1-.5.5-.9 1-.9.3 0 .5.1.7.3l.1.1c.1.2.2.4.2.6s.1.5 0 .6zm0-6.9c0 .1-.1.1-.1.2-.1.1-.2.1-.3.1 0 .1-.1.1-.2.1h-.1-.4-.1c-.1 0-.1 0-.2-.1-.1 0-.1-.1-.1-.1C4 9.1 4 9 4 9l-.1-.1c0-.1-.1-.1-.1-.2v-.1c.1.3.4.5.7.5.4 0 .8-.4.8-.8 0-.5-.3-.8-.8-.8-.1 0-.2 0-.3.1h-.1c-.2.2-.3.3-.4.6 0-.2.1-.4.3-.6 0-.1.1-.1.1-.1.1 0 .1-.1.2-.1s.3-.1.4-.1H5c.1 0 .2.1.3.1.3.2.5.6.5.9 0 .2-.1.5-.2.6zm2.1-2c.1 0 .2 0 .3.1 0 .1 0 .1.1.2s.1.3.2.4c.1.3.2.5.3.8v.5c0 .4-.1.8-.2 1.1-.1.1-.1.3-.1.4 0 .1-.1.1-.1.2-.1.1-.2.1-.3.1-.1-.1-.1-.2-.1-.3 0 0 0-.1.1-.1 0-.2.1-.3.1-.5.1-.3.2-.7.2-1v-.3c0-.2-.1-.5-.2-.7-.2-.1-.2-.3-.3-.4 0 0 0-.1-.1-.1 0-.1 0-.3.1-.4zm.7 10c-.1.1-.1.3-.1.4 0 .1-.1.1-.1.1-.1.1-.2.2-.3.1-.1-.1-.1-.2-.1-.3.1-.2.2-.3.2-.4.1-.3.2-.7.2-1v-.4c0-.2-.1-.5-.2-.7-.1-.1-.1-.3-.2-.4 0 0 0-.1-.1-.1-.1-.1 0-.3.1-.3.1-.1.2 0 .3.1 0 0 .1.1.1.2.1.1.1.3.2.4.1.3.2.5.3.8v.5c-.1.3-.2.6-.3 1zm.4-5.8c0-.1.1-.2.1-.2 0-.2.1-.5.1-.7 0-.2.1-.4.1-.5.1-.5.2-.9.1-1.1v-.2c0-.2-.1-.5-.2-.7 0-.2 0-.4-.1-.5 0 0 0-.1-.1-.1-.1-.2 0-.4.2-.4h2.8c.8.1 2 .2 2.9.4 1.4.3 2.6.7 4.4 1.5.2.2.6.4.7.4.1.1.2.2.1.3 0 .1-.2.2-.3.1 0 0-.5-.2-.6-.3-1.8-.7-3-1.1-4.4-1.4-.9-.2-2.1-.4-2.9-.4h-1.1c-.4 0-.7 0-1.1-.1h-.1c0 .1.1.2.1.3.1.2.2.5.2.7v.3c0 .3 0 .7-.1 1.3 0 .2-.1.4-.2.6l-.3.9v.1c0 .1-.2.2-.3.1 0-.1-.1-.2 0-.4zm10.8 5.3s-.5-.2-.6-.3c-1.8-.8-2.9-1.2-4.3-1.5-.9-.2-2.1-.3-2.9-.4h-1.1c-.4 0-.7 0-1.1-.1h-.2c0 .1.1.2.1.3.1.3.2.5.2.8v.3c0 .3 0 .7-.2 1.3 0 .2-.1.4-.1.6-.1.2-.1.5-.2.7 0 .1-.1.2-.1.2 0 .1-.2.2-.3.2-.1 0-.2-.2-.1-.3v-.1c0-.1 0-.1.1-.2.1-.3.2-.6.2-.8 0-.2.1-.4.1-.5.1-.5.2-.9.1-1.1v-.2c0-.2-.1-.5-.2-.7 0-.2-.1-.3-.2-.4 0 0 0-.1-.1-.1-.1-.2 0-.4.2-.4h.5c.4 0 .8 0 1.1.1h.4c.3 0 .6 0 .8.1.8 0 2 .2 2.9.4 1.4.3 2.6.7 4.4 1.5.1.1.6.3.6.3.1 0 .2.2.1.3h-.1z"/>
  <path fill="#020304" d="M3.8 8.6s-.1 0 0 0v-.3c0-.4.4-.8.8-.8s.8.4.8.8-.3.8-.8.8c-.4.1-.7-.2-.8-.5zM5.3 15.3c0 .4-.3.8-.8.8-.3 0-.6-.2-.7-.5v-.2c0-.4.4-.8.8-.8.3-.1.7.2.7.7z" />
</svg>
