<svg xmlns="http://www.w3.org/2000/svg" viewBox="0 0 24 24">
  <path fill="none" d="M0 0h24v24H0z"/>
  <path d="M11.999 22c-.272 0-.542-.07-.78-.206l-2.483-1.447c-.37-.205-.19-.277-.068-.32.495-.169.595-.208 1.123-.503.055-.03.128-.019.185.014l1.908 1.116a.25.25 0 00.23 0l7.438-4.23a.23.23 0 00.113-.198V7.768a.235.235 0 00-.116-.202l-7.434-4.227a.238.238 0 00-.23 0L4.452 7.567a.236.236 0 00-.117.2v8.459c0 .08.045.157.117.196l2.038 1.16c1.105.545 1.782-.097 1.782-.742V8.49c0-.119.097-.212.217-.212h.943c.117 0 .216.094.216.211v8.351c0 1.454-.804 2.288-2.203 2.288-.43 0-.769 0-1.713-.46L3.78 17.563A1.542 1.542 0 013 16.226V7.768c0-.55.299-1.063.78-1.336l7.438-4.235a1.65 1.65 0 011.563 0l7.437 4.235c.483.274.782.786.782 1.336v8.458c0 .55-.3 1.06-.782 1.337l-7.437 4.231a1.57 1.57 0 01-.782.206zm6.005-8.34c0-1.582-1.086-2.004-3.372-2.302-2.31-.3-2.544-.456-2.544-.989 0-.44.198-1.027 1.91-1.027 1.527 0 2.09.324 2.322 1.339.02.096.11.166.21.166h.964c.06 0 .117-.026.158-.068a.212.212 0 00.056-.163c-.15-1.748-1.328-2.563-3.71-2.563-2.122 0-3.387.881-3.387 2.36 0 1.605 1.258 2.048 3.294 2.246 2.436.235 2.624.586 2.624 1.058 0 .819-.667 1.168-2.234 1.168-1.968 0-2.401-.487-2.547-1.452a.215.215 0 00-.214-.179h-.961a.212.212 0 00-.215.211c0 1.235.682 2.707 3.937 2.707 2.358 0 3.71-.914 3.71-2.511z"/>
</svg>
