<svg xmlns="http://www.w3.org/2000/svg" viewBox="0 0 413 763">
	<style>
		.st1 {
			fill: #131b42
		}

		.st2 {
			fill: #e59e8b
		}

		.st3 {
			fill: #10183c
		}

		.st4 {
			fill: #b27f6d
		}
	</style>
	<g id="manSteen">
		<path class="st1"
			d="M413 539.8c-14.6-23-96.7-40.7-151.1-63.7-54.4-23-196.7-119.3-226-106.7s-14.6 52.3 4.2 108.8 60.7 123.5 48.1 171.6S.4 767 .4 767l412.6-2.2v-225z" />
		<path class="st2"
			d="M207.3 19.7s2.1 12.6 0 16.7c-2.1 4.2-10.5 14.6-6.3 16.7 4.2 2.1 8.4 0 8.4 0s0 14.6 2.1 16.7c2.1 2.1 37.7-25.1 37.7-25.1s-6.3-25.1-14.6-27.2-27.3 2.2-27.3 2.2z" />
		<path class="st3"
			d="M206.6 2.5c3-1.7 3.5 3 9.8 3s2.5-3.3 6.7-5.4c4.2-2.1 7.7 4.7 10.9 4.7 4.2 0 2.6-4 8.9-4S250.4 8 256.7 8c6.3 0 12.2 8.4 9.8 16.4-1.7 5.7-16.9 28.3-25.2 26.2s.4-6.6-6.8-14.2c-3.2-3.4-4.3-1.7-8.5-3.7-4.2-2.1-.7-8.2-3-9.5-8.1-4.7-15.7.1-20.1-2.9-2-1.3-1.9-4.5.3-7.2 3.1-3.8-.2-8.5 3.4-10.6z" />
		<path class="st2"
			d="M142.7 38.4s12.2-12.2 25.9-15.1 28.2-3.8 30.8-2.4c2.6 1.5 2.5 3.7-3.9 5.1-6.5 1.5-15.5 1.9-15.7 3.2-.2 1.3 0 2.3 3.1 2.5 3.1.3 8.8-.7 8.7.9-.1 1.6-12.6 3-15.4 3-2.8 0-13.5 3.2-19.1 7.8-5.6 4.8-14.4-5-14.4-5z" />
		<path class="st4"
			d="M294.4 77.3s8.1-9.5 3.3-21.4-20.3-22.6-25.4-23.4-57.8 38.3-55.1 44.8c2.7 6.5 14.1 20.9 24.7 20.5 10.6-.3 52.5-20.5 52.5-20.5z" />
		<path
			d="M276.9 35.4l-60.5 50c-1.4 1.2-3.6 1-4.8-.5l-4.7-5.7c-1.2-1.4-1-3.6.5-4.8l60.5-50c1.4-1.2 3.6-1 4.8.5l4.7 5.7c1.2 1.5 1 3.6-.5 4.8z"
			fill="#f3f0ed" />
		<path class="st2"
			d="M343.7 262.8c1.3 10.1-1.7 27.6-.8 31.1.9 3.5 2.5.9 2.5-3s-.8-5.8 1-5.9c1.8-.1 3.3 21.3 5.1 22.4 1.8 1 6.7-1.2 7.8-10.7 1.2-9.5-.9-18.7-3.1-25.2s-2.9-15.2-3.1-19.2" />
		<path
			d="M289.4 483.9c-5.5 2.7-1.6 5.2 31 12.8 17.9 4.2 20 0 20 0s-3.9-31.1-7.7-42.8c-3.6-11-19.7-3-19.7-3s8.9 28.7 8.7 30.4c-.4 4.3-26.8-.1-32.3 2.6z"
			fill="#b77d6e" />
		<path
			d="M73.2 389.9s-23.1-11.4-29-9.4c-5.9 2 7.6 11.5 21.2 18.6s16.7 6.9 18.8 2.6c2.1-4.3 16.1-31.4 16.1-31.4l-18.2-10.2s-8.5 19-8.9 29.8z"
			fill="#c08974" />
		<path class="st1"
			d="M260.3 252.7s7 73.1 10.9 94.2c8.6 47.7 36.4 100.9 42.3 107.6 2.2 2.6 18 1.1 19.3-.5 3.1-3.8-.3-37.1-3.9-51.3s-8.7-25.7-10.4-35.4c-1.9-10.9 2.4-101.6 3.7-122.8s-42.5-16.5-48.3-12.3c-5.8 4.2-12.9 11.5-13.6 20.5z" />
		<path
			d="M220.9 215.2s-81.6 17.3-107.8 40.1c-14 12.1-34.9 96.3-33.5 102.6.8 3.7 19.9 13 21.9 12.2 2-.8 24.2-32.7 28.7-41.2 9.5-18 18.4-45.8 21-49.1 2.6-3.3 70.5-5.8 110.9-16.7 13.5-3.7 54.4-15.9 54.4-28.8 0-11.9-17.4-24.5-41.7-24.3-24.5.2-53.9 5.2-53.9 5.2z"
			fill="#202b5f" />
		<path class="st4"
			d="M325.5 201.5c12.9 38.7 5.1 35.9-2.1 41.5s-105.3-16.4-108.6-24.2c-3.3-7.8 4.7-1.7 8.4-13.9 3.7-12.2-21.1-83.5-21.1-83.5s-9.6-1-24.6-2.8c-15-1.7-80.2-25.5-80.2-43.8 0-17.3 40.6-42 42.4-41.2 1.7.9 21.3 5.8 22.5 10.6 1.2 4.9-24.2 20.4-24.6 26.2-.3 5.8 60.3 3.5 75 8.4" />
		<path
			d="M332.4 240.1c5.2 21.8 3.9 27.5 10.8 28.1 3.9.3 11.9-2.6 12.8-4.3 4.3-8.7 2.9-66 2.2-77.9-1-17.1-1-21.1-6.3-32.3-5.2-11.2-35.1-55.2-50.2-58.8-15.2-3.7-3.8 80.9-3.8 80.9s32.9 57.6 34.5 64.3z"
			fill="#b67d6b" />
		<g>
			<path class="st3"
				d="M240.2 88.4c-6.5 11 2.8 76.5 19.4 99.9 11 15.5 20.4 17.6 34.2 15.5 13.8-2.1 33.8-3 41-16.7 9.8-18.9-6.5-58.4-9.2-67.8S309.6 73 294.3 71c-14-1.8-44 .2-54.1 17.4z" />
			<path class="st3"
				d="M257.5 172.9c-11 5.2-41.2 5.2-41.2 5.2s-.5 6.5 2.3 9.6c2.8 3.1 39.8.9 43.2-2.1 3.5-2.9-4.3-12.7-4.3-12.7zM220.1 80.8c-2.4.5-3.8.5-4.1 1.6-.9 3 17.4 25.5 24.3 28.9 5.1 2.6 6.8-13.9 6.8-13.9s-18.1-18.3-27-16.6z" />
		</g>
	</g>
</svg>