<svg xmlns="http://www.w3.org/2000/svg" xmlns:xlink="http://www.w3.org/1999/xlink" viewBox="0 0 588 1949">
	<style>
		.st2,
		.st4 {
			clip-path: url(#SVGID_2_);
			fill: #131b42
		}

		.st4 {
			fill: #202b5f
		}

		.st11 {
			fill: #e59e8b
		}

		.st12 {
			fill: #10183c
		}

		.st13 {
			fill: #b27f6d
		}
	</style>
	<defs>
		<path id="SVGID_1_" d="M-.4-.2h588V1952H-.4z" />
	</defs>
	<clipPath id="SVGID_2_">
		<use xlink:href="#SVGID_1_" overflow="visible" />
	</clipPath>
	<path clip-path="url(#SVGID_2_)" fill="#fcd4c5" d="M-.4-.2h588v1207.3H-.4z" />
	<path class="st2" d="M0 1279h231v43H0z" />
	<linearGradient id="SVGID_3_" gradientUnits="userSpaceOnUse" x1="250.919" y1="1058.827" x2="250.919" y2="1309.238"
		gradientTransform="matrix(.9475 .3196 -.4072 1.2071 452.395 -416.932)">
		<stop offset="0" stop-color="#fff" stop-opacity="0" />
		<stop offset=".042" stop-color="#fdfcfb" stop-opacity=".102" />
		<stop offset=".223" stop-color="#f6f4f0" stop-opacity=".539" />
		<stop offset=".413" stop-color="#f4f1ec" />
	</linearGradient>
	<path clip-path="url(#SVGID_2_)" fill="url(#SVGID_3_)" d="M367.9 1248.9L1 1191 0 854l514.3 185.7z" />
	<path class="st4"
		d="M591.8 824.2S550 920.5 468.3 968.6c-37.2 21.9-92.1-6.3-125.5 35.6l108.8 62.8 163.2 43.9V851.4l-23-27.2zM-6.7 1037.6c18.8-18.8 56.5-35.6 94.2 16.7s71.1 23 115.1 43.9 102.5 102.5 102.5 102.5l-146.5 48.1-194.6-52.2 29.3-159z" />
	<path d="M-23.4 1087.8s10.5 14.6 106.7 43.9 119.3 18.8 200.9 56.5l-44 106.8h-226l-37.7-140.2v-67z"
		clip-path="url(#SVGID_2_)" fill="#ffa080" />
	<g clip-path="url(#SVGID_2_)">
		<linearGradient id="SVGID_4_" gradientUnits="userSpaceOnUse" x1="539.529" y1="469.14" x2="559.342" y2="356.771">
			<stop offset="0" stop-color="#fff" stop-opacity="0" />
			<stop offset=".075" stop-color="#fdfcfb" stop-opacity=".181" />
			<stop offset=".413" stop-color="#f4f1ec" />
		</linearGradient>
		<path
			d="M587.6 361.8S575 399.5 558.3 412c-16.7 12.6-87.9 10.5-90 25.1s-8.4 25.1 25.1 18.8c33.5-6.3 75.3-18.8 94.2-8.4 18.8 10.5 41.8-52.3 41.8-52.3l-41.8-33.4z"
			fill="url(#SVGID_4_)" />
		<linearGradient id="SVGID_5_" gradientUnits="userSpaceOnUse" x1="203.8" y1="246.704" x2="591.768" y2="246.704">
			<stop offset="0" stop-color="#fff" stop-opacity="0" />
			<stop offset=".129" stop-color="#fbfaf8" stop-opacity=".159" />
			<stop offset=".406" stop-color="#f6f3ef" stop-opacity=".499" />
			<stop offset=".814" stop-color="#f4f1ec" />
		</linearGradient>
		<path
			d="M591.8 227.8c-6.3 0-90 23-125.5 56.5s-73.2 75.3-146.5 73.2-129.7-23-113-48.1c16.7-25.1 60.7-14.6 121.4-16.7 75.5-2.6 90-46 110.9-90 20.9-43.9 152.7-67 152.7-67"
			fill="url(#SVGID_5_)" />
		<linearGradient id="SVGID_6_" gradientUnits="userSpaceOnUse" x1="313.563" y1="138.565" x2="241.82"
			y2="-129.185">
			<stop offset="0" stop-color="#fff" stop-opacity="0" />
			<stop offset=".042" stop-color="#fdfcfb" stop-opacity=".102" />
			<stop offset=".223" stop-color="#f6f4f0" stop-opacity=".539" />
			<stop offset=".413" stop-color="#f4f1ec" />
		</linearGradient>
		<path
			d="M-12.9 112.8s77.4 58.6 138.1 69.1c60.7 10.5 90-52.3 148.6-79.5s92.1-50.2 150.7-33.5 161-16.8 171.5-44-29.3-90-29.3-90L234-33.7c-62.8 14.6-83.7 98.3-146.5 94.2C17.8 55.8-12.9-60.9-12.9-60.9v173.7z"
			fill="url(#SVGID_6_)" />
	</g>
	<linearGradient id="SVGID_7_" gradientUnits="userSpaceOnUse" x1="144.795" y1="1155.901" x2="117.754" y2="1326.634">
		<stop offset=".203" stop-color="#ffa080" />
		<stop offset=".255" stop-color="#cb8372" />
		<stop offset=".318" stop-color="#936364" />
		<stop offset=".379" stop-color="#654958" />
		<stop offset=".437" stop-color="#42354e" />
		<stop offset=".491" stop-color="#282747" />
		<stop offset=".54" stop-color="#181e43" />
		<stop offset=".578" stop-color="#131b42" />
	</linearGradient>
	<path
		d="M-12.7 1306l281.8-8.9 24.5-73.8s-43.4-45-84.2-54.4c-40.8-9.4-87.3-4.5-133.9-10.1-46.6-5.6-86.3-27.5-86.3-27.5l-1.9 174.7z"
		clip-path="url(#SVGID_2_)" fill="url(#SVGID_7_)" />
	<path class="st2"
		d="M588 1095c-14.6-23-96.7-40.7-151.1-63.7-54.4-23-196.7-119.3-226-106.7-29.3 12.6-14.6 52.3 4.2 108.8s60.7 123.5 48.1 171.6c-12.6 48.1-87.9 117.2-87.9 117.2L588 1320v-225z" />
	<g>
		<path class="st11"
			d="M382.3 574.9s2.1 12.6 0 16.7-10.5 14.6-6.3 16.7c4.2 2.1 8.4 0 8.4 0s0 14.6 2.1 16.7c2.1 2.1 37.7-25.1 37.7-25.1s-6.3-25.1-14.6-27.2c-8.5-2-27.3 2.2-27.3 2.2z" />
		<path class="st12"
			d="M381.6 557.7c3-1.7 3.5 3 9.8 3s2.5-3.3 6.7-5.4c4.2-2.1 7.7 4.7 10.9 4.7 4.2 0 2.6-4 8.9-4 6.3 0 7.6 7.2 13.9 7.2 6.3 0 12.2 8.4 9.8 16.4-1.7 5.7-16.9 28.3-25.2 26.2-8.4-2.1.4-6.6-6.8-14.2-3.2-3.4-4.3-1.7-8.5-3.7s-.7-8.2-3-9.5c-8.1-4.7-15.7.1-20.1-2.9-2-1.3-1.9-4.5.3-7.2 3-3.9-.3-8.5 3.3-10.6z" />
		<path class="st11"
			d="M317.7 593.6s12.2-12.2 25.9-15.1c13.7-2.9 28.2-3.8 30.8-2.4 2.6 1.5 2.5 3.7-3.9 5.1-6.5 1.5-15.5 1.9-15.7 3.2s0 2.3 3.1 2.5c3.1.3 8.8-.7 8.7.9-.1 1.6-12.6 3-15.4 3s-13.5 3.2-19.1 7.8c-5.6 4.8-14.4-5-14.4-5z" />
		<path class="st13"
			d="M469.4 632.5s8.1-9.5 3.3-21.4c-4.8-11.9-20.3-22.6-25.4-23.4-5.1-.7-57.8 38.3-55.1 44.8 2.7 6.5 14.1 20.9 24.7 20.5 10.6-.3 52.5-20.5 52.5-20.5z" />
		<path
			d="M451.9 590.6l-60.5 50c-1.4 1.2-3.6 1-4.8-.5l-4.7-5.7c-1.2-1.4-1-3.6.5-4.8l60.5-50c1.4-1.2 3.6-1 4.8.5l4.7 5.7c1.2 1.5 1 3.6-.5 4.8z"
			fill="#f3f0ed" />
		<path class="st11"
			d="M518.7 818c1.3 10.1-1.7 27.6-.8 31.1.9 3.5 2.5.9 2.5-3s-.8-5.8 1-5.9c1.8-.1 3.3 21.3 5.1 22.4s6.7-1.2 7.8-10.7c1.2-9.5-.9-18.7-3.1-25.2s-2.9-15.2-3.1-19.2" />
		<path
			d="M464.4 1039.1c-5.5 2.7-1.6 5.2 31 12.8 17.9 4.2 20 0 20 0s-3.9-31.1-7.7-42.8c-3.6-11-19.7-3-19.7-3s8.9 28.7 8.7 30.4c-.4 4.3-26.8-.1-32.3 2.6z"
			fill="#b77d6e" />
		<path
			d="M248.2 945.1s-23.1-11.4-29-9.4c-5.9 2 7.6 11.5 21.2 18.6s16.7 6.9 18.8 2.6c2.1-4.3 16.1-31.4 16.1-31.4l-18.2-10.2s-8.5 18.9-8.9 29.8z"
			fill="#c08974" />
		<path
			d="M435.3 807.9s7 73.1 10.9 94.2c8.6 47.7 36.4 100.9 42.3 107.6 2.2 2.6 18 1.1 19.3-.5 3.1-3.8-.3-37.1-3.9-51.3s-8.7-25.7-10.4-35.4c-1.9-10.9 2.4-101.6 3.7-122.8 1.3-21.2-42.5-16.5-48.3-12.3-5.8 4.2-12.9 11.5-13.6 20.5z"
			fill="#131b42" />
		<path
			d="M395.9 770.4s-81.6 17.3-107.8 40.1c-14 12.1-34.9 96.3-33.5 102.6.8 3.7 19.9 13 21.9 12.2 2-.8 24.2-32.7 28.7-41.2 9.5-18 18.4-45.8 21-49.1 2.6-3.3 70.5-5.8 110.9-16.7 13.5-3.7 54.4-15.9 54.4-28.8 0-11.9-17.4-24.5-41.7-24.3-24.5.2-53.9 5.2-53.9 5.2z"
			fill="#202b5f" />
		<path class="st13"
			d="M500.5 756.7c12.9 38.7 5.1 35.9-2.1 41.5S393.1 781.8 389.8 774c-3.3-7.8 4.7-1.7 8.4-13.9 3.7-12.2-21.1-83.5-21.1-83.5s-9.6-1-24.6-2.8c-15-1.7-80.2-25.5-80.2-43.8 0-17.3 40.6-42 42.4-41.2 1.7.9 21.3 5.8 22.5 10.6 1.2 4.9-24.2 20.4-24.6 26.2-.3 5.8 60.3 3.5 75 8.4" />
		<path
			d="M507.4 795.3c5.2 21.8 3.9 27.5 10.8 28.1 3.9.3 11.9-2.6 12.8-4.3 4.3-8.7 2.9-66 2.2-77.9-1-17.1-1-21.1-6.3-32.3-5.2-11.2-35.1-55.2-50.2-58.8-15.2-3.7-3.8 80.9-3.8 80.9s32.9 57.6 34.5 64.3z"
			fill="#b67d6b" />
		<g>
			<path class="st12"
				d="M415.2 643.6c-6.5 11 2.8 76.5 19.4 99.9 11 15.5 20.4 17.6 34.2 15.5 13.8-2.1 33.8-3 41-16.7 9.8-18.9-6.5-58.4-9.2-67.8s-16-46.3-31.3-48.3c-14-1.9-44 .2-54.1 17.4z" />
			<path class="st12"
				d="M432.5 728.1c-11 5.2-41.2 5.2-41.2 5.2s-.5 6.5 2.3 9.6c2.8 3.1 39.8.9 43.2-2.1s-4.3-12.7-4.3-12.7zM395.1 636c-2.4.5-3.8.5-4.1 1.6-.9 3 17.4 25.5 24.3 28.9 5.1 2.6 6.8-13.9 6.8-13.9s-18.1-18.3-27-16.6z" />
		</g>
	</g>
</svg>