<svg xmlns="http://www.w3.org/2000/svg" height="24px" viewBox="0 0 24 24" width="24px">
  <path d="M0 0h24v24H0z" fill="none"/>
  <path d="M17 11.5c0 3-1 5.5-3.1 7.6-.3.3-.7.6-1.1.9-.2.2-.3.5-.3.7 0 .2-.1.4 0 .6v1.5s0 .1-.1.1c-.1-.1-.2-.1-.3-.1-.2-.1-.2 0-.2-.3v-.2c0-.7-.1-1.3-.3-1.9v-.1c-.4-.3-.8-.6-1.1-.9-1.4-1.3-2.5-2.9-3-4.7-.3-.7-.5-3.2-.5-3.8.1-1.9.6-3.7 1.5-5.4.7-1.2 1.5-2.4 2.6-3.3.2-.2.4-.3.5-.5.1-.2.2-.4.2-.7 0 0 0-.1.1 0l.6 1.1c.1.2.3.4.4.6.5.5 1 1 1.4 1.6 1 1.3 1.7 2.8 2.2 4.3.3.9.5 1.9.5 2.9z"/>
</svg>
