<svg xmlns="http://www.w3.org/2000/svg" viewBox="0 0 24 24">
  <path fill="none" d="M0 0h24v24H0z"/>
  <path d="M18.4 6.4c-.2-.1-.3-.3-.8-.4.2-.6.3-1.1.3-1.4 0-.7-.3-1.1-.8-1.5-.5-.4-1.3-.5-1.9-.3C14.6 1.5 13 1 11.5 1s-3 .5-3.8 1.7c-.6-.1-1.4 0-1.9.3-.6.6-1.1 1.3-.4 3-.5.1-.6.2-.8.4-.3.2-.6.6-.6 1.2 0 1 .8 8.2.8 8.2l.7-.6v1l1.2-1v.6l.6-.6.5-.4c0 2.3-.1 5.1-.5 7.7.1.4.3.5.5.5.1 0 .2 0 .3-.1.6-.3 1.2-1.7 1.5-3.1.3-1.2.6-2.8.9-4.8.1.1.5.2 1 .2.4 0 .8-.1 1-.2.3 1.9.6 3.5.9 4.8.3 1.5.9 2.8 1.5 3.1 0 0 .2.1.3.1.2 0 .5-.1.4-.5-.4-2.6-.5-5.4-.5-7.7l.5.4.7.6v-.6l1.2 1v-1l.7.6s.8-7.2.8-8.2c0-.6-.3-1-.6-1.2zM7.3 5.1c-.2 0-.4-.1-.4-.3v-.1H7c.1 0 .2-.1.2-.2v-.1h.1c.2 0 .3.2.3.4s-.1.3-.3.3zm-1-1.4s.2-.2.9-.2c.9 0 .9.4 1.9.4.6 0 .5-.5.5-.5s.4 1.2-.3 1.2c-.9-.1-1.3-1.3-3-.9zm3.9 10.6c-.6 3.8-1.4 7.9-2.3 8.3-.1 0-.1 0-.1-.1.1-.6.4-2.2.5-3.7.1-1.1.1-3 .1-5l.6-.5h.1v.5l1.5-1.5c-.1 0-.3 1.5-.4 2zm1.3-2.2c-.2 0-.4-.1-.5-.2l.3-.3.2-.2.2.2.3.3c-.1.1-.3.2-.5.2zm.3-4.8l-.2.2h-.1-.1l-.2-.2-1.4-1.4v-.1h3.4s.1.1 0 .1l-1.4 1.4zm3.4 15.2c0 .1-.1.1-.1.1-.9-.4-1.7-4.4-2.3-8.3-.1-.5-.3-1.9-.3-1.9l1.5 1.5v-.5c0-.1.1-.1.1 0l.6.5c0 2 0 3.9.1 5 0 1.3.3 2.9.4 3.6zm.7-17.4c-.2 0-.3-.2-.3-.4v-.1h.1c.1 0 .2-.1.2-.2v-.1h.1c.2 0 .3.2.4.4-.2.3-.3.4-.5.4zm-2.3-.6c-.7 0-.3-1.2-.3-1.2s-.1.5.5.5c1.1 0 1.1-.4 1.9-.4.7 0 .9.2.9.2-1.5-.3-1.9.9-3 .9z"/>
</svg>
