<svg xmlns="http://www.w3.org/2000/svg" viewBox="0 0 24 24">
  <path fill="none" d="M0 0h24v24H0z"/>
  <path d="M19.8 3.9c-2-2.9-6-3.8-8.8-2L6 5.2c-1.4.9-2.4 2.3-2.6 4-.2 1.4 0 2.8.6 4-.4.7-.7 1.4-.9 2.2-.3 1.7.1 3.4 1.1 4.7 2 2.9 6 3.8 8.8 1.9l5-3.2c1.4-.9 2.3-2.3 2.6-3.9.2-1.4 0-2.8-.6-4 .4-.7.7-1.4.9-2.2.3-1.7-.1-3.4-1.1-4.8zm-.9 4c0 .2-.1.3-.1.5l-.1.3-.3-.2c-.6-.5-1.4-.8-2.1-1.1l-.2-.1v-.2c0-.3 0-.6-.2-.8-.3-.4-.9-.6-1.4-.5-.1 0-.2.1-.3.1L8.7 9.5c-.3.2-.5.4-.5.8 0 .3 0 .6.2.9.3.5.9.7 1.4.5.1 0 .2-.1.3-.1l2.1-1.3c.3-.2.7-.4 1.1-.5 1.8-.5 3.6.2 4.6 1.7.6.9.9 2 .7 3-.2 1-.8 1.9-1.7 2.5l-5.5 3.5c-.3.2-.7.4-1.1.5-1.8.5-3.6-.2-4.7-1.7-.6-.9-.9-2-.7-3 0-.2.1-.3.1-.5l.1-.3.3.2c.6.5 1.4.8 2.1 1l.2.1v.2c0 .3.1.6.2.8.3.4.9.6 1.4.5.1 0 .2-.1.3-.1l5.5-3.5c.3-.2.5-.4.5-.8 0-.3 0-.7-.2-.9-.3-.5-.9-.7-1.4-.5-.1 0-.2.1-.3.1l-2.1 1.3c-.3.2-.7.4-1.1.5-1.8.5-3.6-.2-4.6-1.7-.6-.9-.9-2-.7-3 .2-1 .8-2 1.7-2.5l5.5-3.5c.3-.2.7-.4 1.1-.5 1.8-.5 3.6.2 4.7 1.7.7.8.9 1.9.7 3z"/>
</svg>
