 <svg width="667px" height="202px" viewBox="0 0 667 202" version="1.1" xmlns="http://www.w3.org/2000/svg" xmlns:xlink="http://www.w3.org/1999/xlink">
    <g id="Page-1" stroke="none" stroke-width="1" fill="none" fill-rule="evenodd">
        <g id="Logo" transform="translate(-206.000000, -168.000000)" fill="#FFFFFF">
            <path d="M565.9064,353.7916 C570.191,353.7916 573.665,357.2463 573.665,361.5309 C573.665,365.8155 570.191,369.2702 565.9064,369.2702 C561.6411,369.2702 558.1671,365.8155 558.1671,361.5309 C558.1671,357.2463 561.6411,353.7916 565.9064,353.7916 Z M526.5344,353.7916 C530.819,353.7916 534.293,357.2463 534.293,361.5309 C534.293,365.8155 530.819,369.2702 526.5344,369.2702 C522.2691,369.2702 518.7951,365.8155 518.7951,361.5309 C518.7951,357.2463 522.2691,353.7916 526.5344,353.7916 Z M250.3128,353.7916 C254.5974,353.7916 258.0714,357.2463 258.0714,361.5309 C258.0714,365.8155 254.5974,369.2702 250.3128,369.2702 C246.0475,369.2702 242.5735,365.8155 242.5735,361.5309 C242.5735,357.2463 246.0475,353.7916 250.3128,353.7916 Z M289.6848,353.7916 C293.9694,353.7916 297.4434,357.2463 297.4434,361.5309 C297.4434,365.8155 293.9694,369.2702 289.6848,369.2702 C285.4195,369.2702 281.9455,365.8155 281.9455,361.5309 C281.9455,357.2463 285.4195,353.7916 289.6848,353.7916 Z M867.797075,353.8688 C869.669175,353.8688 870.981575,354.4671 872.081675,355.5093 L870.962275,356.9182 C870.113075,356.069 869.109475,355.5865 867.797075,355.5865 C866.388175,355.5865 865.345975,356.3971 865.345975,357.6902 C865.345975,358.6166 865.867075,359.2921 867.449675,359.929 L869.302475,360.6817 C871.579875,361.6081 872.525575,363.0749 872.525575,364.8891 C872.525575,367.3981 870.634175,369.1737 867.661975,369.1737 C865.674075,369.1737 863.744075,368.2473 862.508875,366.9156 L863.763375,365.5453 C864.670475,366.6068 866.195175,367.4753 867.719875,367.4753 C869.534075,367.4753 870.711375,366.4138 870.711375,365.0049 C870.711375,363.9627 870.151675,362.9784 868.569075,362.3415 L866.774175,361.6274 C864.689775,360.7975 863.570375,359.6588 863.570375,357.7481 C863.570375,355.5672 865.384575,353.8688 867.797075,353.8688 Z M834.388775,354.0811 C837.032875,354.0811 839.117275,355.8953 839.117275,358.578 C839.117275,361.1449 837.187275,362.8819 834.678275,363.0363 L839.290975,369 L837.129375,369 L832.535975,363.017 L830.644575,363.017 L830.644575,369 L828.791775,369 L828.791775,354.0811 L834.388775,354.0811 Z M738.5642,354.0811 L744.5858,369 L742.6172,369 L741.6136,366.5296 L733.8936,366.5296 L732.89,369 L730.96,369 L737.0588,354.0811 L738.5642,354.0811 Z M803.798275,354.0811 L803.798275,355.7602 L797.216975,355.7602 L797.216975,360.6045 L803.528075,360.6045 L803.528075,362.2836 L797.216975,362.2836 L797.216975,367.3402 L803.894775,367.3402 L803.894775,369 L795.364175,369 L795.364175,354.0811 L803.798275,354.0811 Z M487.4133,354.0811 C491.447,354.0811 494.921,357.3235 494.921,361.5116 C494.921,365.8348 491.5435,369 487.3747,369 L483.4568,369 L483.4568,354.0811 L487.4133,354.0811 Z M662.9661,354.0811 L662.9661,360.6045 L670.7633,360.6045 L670.7633,354.0811 L672.6161,354.0811 L672.6161,369 L670.7633,369 L670.7633,362.3608 L662.9661,362.3608 L662.9661,369 L661.1133,369 L661.1133,354.0811 L662.9661,354.0811 Z M419.4966,354.0811 L428.2202,365.1593 L428.2202,354.0811 L430.073,354.0811 L430.073,369 L428.9536,369 L420.1721,357.8832 L420.1721,369 L418.3193,369 L418.3193,354.0811 L419.4966,354.0811 Z M208.0265,354.0811 L212.755,366.0471 L217.5028,354.0811 L219.4328,354.0811 L213.4884,369 L211.9637,369 L206.0579,354.0811 L208.0265,354.0811 Z M604.0625,354.0811 C606.7066,354.0811 608.791,355.8953 608.791,358.578 C608.791,361.1449 606.861,362.8819 604.352,363.0363 L608.9647,369 L606.8031,369 L602.2097,363.017 L600.3183,363.017 L600.3183,369 L598.4655,369 L598.4655,354.0811 L604.0625,354.0811 Z M327.8409,354.0811 C330.485,354.0811 332.5694,355.8953 332.5694,358.578 C332.5694,361.1449 330.6394,362.8819 328.1304,363.0363 L332.7431,369 L330.5815,369 L325.9881,363.017 L324.0967,363.017 L324.0967,369 L322.2439,369 L322.2439,354.0811 L327.8409,354.0811 Z M698.6518,354.0811 L703.3803,366.0471 L708.1281,354.0811 L710.0581,354.0811 L704.1137,369 L702.589,369 L696.6832,354.0811 L698.6518,354.0811 Z M393.3258,354.0811 L393.3258,355.7602 L386.7445,355.7602 L386.7445,360.6045 L393.0556,360.6045 L393.0556,362.2836 L386.7445,362.2836 L386.7445,367.3402 L393.4223,367.3402 L393.4223,369 L384.8917,369 L384.8917,354.0811 L393.3258,354.0811 Z M526.5344,355.5865 C523.2534,355.5865 520.6672,358.2306 520.6672,361.5309 C520.6672,364.8312 523.2534,367.4753 526.5344,367.4753 C529.8154,367.4753 532.4209,364.8312 532.4209,361.5309 C532.4209,358.2306 529.7961,355.5865 526.5344,355.5865 Z M250.3128,355.5865 C247.0318,355.5865 244.4456,358.2306 244.4456,361.5309 C244.4456,364.8312 247.0318,367.4753 250.3128,367.4753 C253.5938,367.4753 256.1993,364.8312 256.1993,361.5309 C256.1993,358.2306 253.5745,355.5865 250.3128,355.5865 Z M565.9064,355.5865 C562.6254,355.5865 560.0392,358.2306 560.0392,361.5309 C560.0392,364.8312 562.6254,367.4753 565.9064,367.4753 C569.1874,367.4753 571.7929,364.8312 571.7929,361.5309 C571.7929,358.2306 569.1681,355.5865 565.9064,355.5865 Z M289.6848,355.5865 C286.4038,355.5865 283.8176,358.2306 283.8176,361.5309 C283.8176,364.8312 286.4038,367.4753 289.6848,367.4753 C292.9658,367.4753 295.5713,364.8312 295.5713,361.5309 C295.5713,358.2306 292.9465,355.5865 289.6848,355.5865 Z M487.4519,355.7988 L485.271,355.7988 L485.271,367.2823 L487.5098,367.2823 C490.6557,367.2823 493.0489,364.7154 493.0489,361.5116 C493.0489,358.2692 490.4627,355.7988 487.4519,355.7988 Z M737.7922,357.034 L734.5691,364.8891 L740.9574,364.8891 L737.7922,357.034 Z M603.8502,355.7216 L600.3183,355.7216 L600.3183,361.473 L603.8309,361.473 C605.6065,361.473 606.9189,360.3343 606.9189,358.578 C606.9189,356.9568 605.6258,355.7216 603.8502,355.7216 Z M327.6286,355.7216 L324.0967,355.7216 L324.0967,361.473 L327.6093,361.473 C329.3849,361.473 330.6973,360.3343 330.6973,358.578 C330.6973,356.9568 329.4042,355.7216 327.6286,355.7216 Z M834.176475,355.7216 L830.644575,355.7216 L830.644575,361.473 L834.157175,361.473 C835.932775,361.473 837.245175,360.3343 837.245175,358.578 C837.245175,356.9568 835.952075,355.7216 834.176475,355.7216 Z M770.30893,354.119775 L769.837739,359.236914 L768.443013,359.236914 L767.981245,354.119775 L770.30893,354.119775 Z M625.9335,203.119 L685.1225,279.064 L685.1225,203.119 L718.0865,203.119 L718.0865,325.053 L680.6585,325.053 L634.6755,265.951 L634.6755,325.053 L601.7125,325.053 L601.7125,203.119 L625.9335,203.119 Z M372.8062,203.119 L406.8622,295.09 L440.0082,203.119 L474.0642,203.119 L429.1082,325.053 L383.9722,325.053 L338.3862,203.119 L372.8062,203.119 Z M537.881,203.1189 L583.467,325.0529 L550.016,325.0529 L544.409,310.0519 L500.77,310.0519 L495.467,325.0529 L461.886,325.0529 L506.842,203.1189 L537.881,203.1189 Z M239.8465,168 L239.8465,222.272 L290.2935,222.272 L290.2935,168 L323.2575,168 L323.2575,308.779 L290.2935,308.779 L290.2935,253.05 L239.8465,253.05 L239.8465,308.779 L206.8835,308.779 L206.8835,168 L239.8465,168 Z M817.4105,168.0007 L870.0435,308.7787 L835.8045,308.7787 L829.0665,290.7487 L774.9765,290.7487 L768.6025,308.7787 L734.3645,308.7787 L786.2685,168.0007 L817.4105,168.0007 Z M522.371,243.1089 L508.983,281.7619 L535.988,281.7619 L522.371,243.1089 Z M801.7485,216.8087 L785.1755,262.5207 L818.6855,262.5207 L801.7485,216.8087 Z" id="Shape"></path>
        </g>
    </g>
</svg>